<svg width="56" height="44" viewBox="0 0 56 44" fill="none" xmlns="http://www.w3.org/2000/svg">
<path d="M17.375 17.126C18.39 17.126 19.3037 18.0606 19.3037 19.3135V32.8076C19.3043 32.8429 19.3055 32.8939 19.3076 32.959C19.3118 33.0891 19.3204 33.2764 19.3369 33.5078C19.3699 33.9702 19.4354 34.6131 19.5674 35.3379C19.7007 36.0702 19.9129 36.839 20.1777 37.5215C20.4388 38.1943 20.7668 38.8246 21.1494 39.248C21.9259 40.1074 21.9259 41.5176 21.1494 42.377C20.3993 43.207 19.2072 43.207 18.457 42.377C16.7708 40.5107 16.1358 38.139 15.7891 36.21C15.6176 35.2561 15.5322 34.3876 15.4893 33.7578C15.4678 33.4434 15.4575 33.1891 15.4521 33.0146C15.4495 32.9275 15.4479 32.8603 15.4473 32.8154C15.4469 32.793 15.4464 32.7756 15.4463 32.7646V19.3135C15.4463 18.0606 16.36 17.126 17.375 17.126ZM10.0889 27.875C11.1038 27.875 12.0174 28.8097 12.0176 30.0625V38.125C12.0176 39.3779 11.1039 40.3125 10.0889 40.3125C9.07401 40.3122 8.16113 39.3777 8.16113 38.125V30.0625C8.16127 28.8099 9.07408 27.8753 10.0889 27.875ZM17.375 9.06348C22.3934 9.06348 26.5889 13.6305 26.5889 19.3135V32.7471C26.5884 32.7666 26.5886 32.788 26.5898 32.8115C26.5923 32.8585 26.599 32.9177 26.6113 32.9932C26.6359 33.1437 26.6866 33.3729 26.79 33.7217C27.0075 34.455 27.4491 35.4689 28.4355 36.5605C29.2119 37.42 29.2121 38.8311 28.4355 39.6904C27.6855 40.5203 26.4933 40.5202 25.7432 39.6904C24.3015 38.095 23.5279 36.4201 23.1377 35.1348C22.9446 34.4986 22.8424 33.8965 22.7891 33.4521C22.7625 33.2306 22.7479 33.0496 22.7402 32.9258C22.7364 32.864 22.7346 32.8164 22.7334 32.7852C22.7328 32.7698 22.7326 32.7582 22.7324 32.751V19.3135C22.7324 16.0838 20.4108 13.4385 17.375 13.4385C14.3392 13.4385 12.0176 16.0838 12.0176 19.3135V22C12.0176 23.2529 11.1039 24.1875 10.0889 24.1875C9.07401 24.1872 8.16113 23.2527 8.16113 22V19.3135C8.16113 13.6305 12.3566 9.06348 17.375 9.06348ZM4.9502 8.61133C5.31296 8.59527 5.68034 8.69882 6 8.9209L6.00098 8.92188C6.91365 9.5532 7.21999 10.9115 6.62793 11.96L6.62695 11.9609C5.38858 14.1688 4.73242 16.7212 4.73242 19.3135V32.918C4.73242 34.1708 3.81868 35.1054 2.80371 35.1055C1.78868 35.1055 0.875 34.1709 0.875 32.918V19.3135C0.875 15.8804 1.74616 12.5213 3.37305 9.61621L3.37207 9.61523C3.65126 9.1178 4.09301 8.78171 4.57617 8.66016L4.58789 8.65625C4.69385 8.62698 4.81021 8.6123 4.92871 8.6123H4.93945L4.9502 8.61133ZM31.9463 27.875C32.9612 27.875 33.8749 28.8097 33.875 30.0625C33.875 31.3154 32.9613 32.25 31.9463 32.25C30.9313 32.2499 30.0176 31.3153 30.0176 30.0625C30.0177 28.8098 30.9314 27.8751 31.9463 27.875ZM17.542 1.00098C20.3674 1.03174 23.1772 1.86429 25.6973 3.50293C30.7043 6.75201 33.8189 12.7087 33.8652 19.1699L33.8662 19.2236L33.874 19.2588V19.2598C33.8742 19.2642 33.8749 19.2703 33.875 19.2793V22C33.875 23.2529 32.9613 24.1875 31.9463 24.1875C30.9313 24.1874 30.0176 23.2528 30.0176 22V19.3135C30.0176 14.3831 27.6681 9.81854 23.7949 7.30371H23.7939C20.0257 4.86334 15.4125 4.73527 11.5537 6.94141L11.1826 7.16211C10.2899 7.7163 9.1267 7.38892 8.59082 6.32324V6.32129L8.49902 6.11621C8.092 5.07736 8.46735 3.86104 9.33691 3.32031C11.8925 1.74358 14.7186 0.97203 17.542 1.00098Z" fill="#2E3434" stroke="#89DCF7"/>
</svg>
