<svg width="16" height="16" viewBox="0 0 16 16" fill="none" xmlns="http://www.w3.org/2000/svg">
<path fill-rule="evenodd" clip-rule="evenodd" d="M12.495 5.89299C12.832 6.23099 14.184 4.87699 13.847 4.54099L10.864 1.55699C10.526 1.21899 9.17399 2.57299 9.50999 2.90899L12.495 5.89299Z" fill="#89DCF7"/>
<path fill-rule="evenodd" clip-rule="evenodd" d="M3.28795 10.897C3.07195 10.68 2.59695 10.802 2.22995 11.168C1.86295 11.536 1.74195 12.009 1.95895 12.228L3.23295 13.501C3.44995 13.719 3.92195 13.597 4.28895 13.23C4.65795 12.864 4.77895 12.388 4.56195 12.172L3.28795 10.897Z" fill="#89DCF7"/>
<path d="M3.27491 -0.317252L-0.234924 3.19159L1.14655 4.57346L4.65639 1.06462L3.27491 -0.317252Z" fill="#89DCF7"/>
<path fill-rule="evenodd" clip-rule="evenodd" d="M12.0879 8.37399L10.6569 9.80199L9.91795 9.06299L11.5429 7.43899C11.8139 7.16799 11.8099 6.72299 11.5309 6.44699L9.03095 3.94799C8.75695 3.67299 8.31395 3.66999 8.04295 3.93899L6.41895 5.56399L5.68395 4.82899L7.11295 3.40099L5.71795 2.00699L2.22095 5.50299L3.61395 6.89699L5.02795 5.48399L5.76295 6.21899L4.13395 7.84899C3.86395 8.11999 3.86595 8.56399 4.14095 8.83799L6.64095 11.336C6.91695 11.612 7.36295 11.617 7.63195 11.346L9.26195 9.71699L10.0009 10.456L8.58495 11.869L9.96695 13.25L13.4639 9.75299L12.0879 8.37399Z" fill="#89DCF7"/>
<path d="M14.4618 10.2198L10.9524 13.7362L12.3538 15.1349L15.8632 11.6185L14.4618 10.2198Z" fill="#89DCF7"/>
</svg>
